{
  "accessors": [
    {
      "bufferView": 0,
      "componentType": 5126,
      "count": 6813,
      "max": [
        2.8272173404693604,
        2.000657558441162,
        2.8268792629241943
      ],
      "min": [
        -2.8272199630737305,
        -0.24014000594615936,
        -2.8268699645996094
      ],
      "type": "VEC3"
    },
    {
      "bufferView": 1,
      "componentType": 5125,
      "count": 15539,
      "type": "SCALAR"
    },
    {
      "bufferView": 2,
      "componentType": 5126,
      "count": 6813,
      "type": "VEC3"
    },
    {
      "bufferView": 3,
      "componentType": 5126,
      "count": 6813,
      "type": "VEC4"
    },
    {
      "bufferView": 4,
      "componentType": 5126,
      "count": 6813,
      "type": "VEC2"
    }
  ],
  "asset": {
    "version": "2.0"
  },
  "bufferViews": [
    {
      "buffer": 0,
      "byteLength": 81756,
      "target": 34962
    },
    {
      "buffer": 1,
      "byteLength": 62156,
      "target": 34963
    },
    {
      "buffer": 2,
      "byteLength": 81756,
      "target": 34962
    },
    {
      "buffer": 3,
      "byteLength": 109008,
      "target": 34962
    },
    {
      "buffer": 4,
      "byteLength": 54504,
      "target": 34962
    }
  ],
  "buffers": [
    {
      "byteLength": 81756,
      "uri": "data:application/octet-stream;base64,"
    },
    {
      "byteLength": 62156,
      "uri": "data:application/octet-stream;base64,"
    },
    {
      "byteLength": 81756,
      "uri": "data:application/octet-stream;base64,"
    },
    {
      "byteLength": 109008,
      "uri": "data:application/octet-stream;base64,"
    },
    {
      "byteLength": 54504,
      "uri": "data:application/octet-stream;base64,"
    }
  ],
  "materials": [
    {
      "doubleSided": true,
      "name": "Steering Wheel",
      "normalTexture" : {
      "index" : 2,
      "scale" : 2
      },
      "pbrMetallicRoughness": {
        "baseColorTexture" : {"index" : 1},
        "metallicFactor" : 0,
        "metallicRoughnessTexture" : { "index" : 3 },
        "baseColorFactor": [
          1.0,
          1.0,
          1.0,
          1.0
        ]
      }
    }
  ],
  "images": [
    {
         "uri" : "078108ae53c34c58b356080c0492a78c_R_Ae86_SteeringWheel_Lp_Metallic.png"
    },
    {
         "uri" : "b3fa23a11df64ac0b913c09c7aa2f9a6_RGB_Ae86_SteeringWheel_Lp_Color.png"
    },
    {
         "uri" : "c460a19e48664a22a0359aaf5b8f38d4_N_Ae86_SteeringWheel_Lp_Normal.png"
    },
    {
         "uri" : "fa1848a3f82c4b97962ae64cb2f6cb2d_R_Ae86_SteeringWheel_Lp_Roughness.png"
    }
  ],
  "textures": [
    {
         "source" : 0
    },
    {
         "source" : 1
    },
    {
         "source" : 2
    },
    {
         "source" : 3
    }
  ],
  "meshes": [
    {
      "name": "SteeringWheel_Steering Wheel_0",
      "primitives": [
        {
          "attributes": {
            "NORMAL": 2,
            "POSITION": 0,
            "TANGENT": 3,
            "TEXCOORD_0": 4
          },
          "indices": 1,
          "material": 0,
          "mode": 5
        }
      ]
    }
  ],
  "nodes": [
    {
      "mesh": 0,
      "name": "SteeringWheel_Steering Wheel_0"
    },
    {
      "children": [
        0
      ],
      "name": "SteeringWheel",
      "rotation": [
        -0.7071068387878171,
        0.0,
        0.0,
        0.7071067235852733
      ],
      "scale": [
        100.0,
        100.0,
        100.0
      ],
      "translation": [
        0.0,
        0.0,
        0.0
      ]
    },
    {
      "children": [
        1
      ],
      "name": "RootNode"
    },
    {
      "children": [
        2
      ],
      "name": "50be691a03be494491d021fe714cbe3d.fbx",
      "rotation": [
        1.1102230246251565e-16,
        0.0,
        0.0,
        1.0
      ],
      "scale": [
        0.009999999776482582,
        0.009999999776482582,
        0.009999999776482582
      ],
      "translation": [
        0.0,
        0.0,
        0.0
      ]
    }
  ],
  "scene": 0,
  "scenes": [
    {
      "nodes": [
        3
      ]
    }
  ]
}
